<svg xmlns="http://www.w3.org/2000/svg" width="176" height="26" fill="none">
  <path fill="#BDBDBD" fill-rule="evenodd" d="M18.8 21.8 10.6 0H6L4.5 4 11 21.8c.4 1.1.3 2.2-2.3 2.2v1.5h12.7V24c-1 0-2-.6-2.6-2.2ZM35 23.9h.8v1.6H23.1V24c.4 0 .9 0 1.3-.3.3-.1.5-.4.7-.7.1-.3.2-.7.1-1V11.2c0-1.2-.2-1.6-1.8-1.5h-.8V8.4A28 28 0 0 1 30 7c2 0 2.6.6 2.6 2.3v1C34.3 8.1 36.2 7 38.3 7c2 0 3.5 1.1 3.5 3.2a3 3 0 0 1-.8 2.2 3.1 3.1 0 0 1-2.4 1c-2.4 0-2.2-2.6-4.4-2.6a3 3 0 0 0-1.6.5v10.9c0 1 .8 1.8 2.5 1.8Zm9.5-16.5H61l.7 1-10 15h3.1a6 6 0 0 0 3.5-1.1c1-.8 1.7-1.8 2-3l1.4.2-.9 6H43.5l-.6-1 10-15h-2.8c-3.2 0-4.5 1.8-5.3 3.8l-1.4-.2 1.2-5.7ZM84 23.8h.7v.8c-1.7 1-3.6 1.4-5.6 1.4-3.6 0-4.3-1.5-4.3-3.6V22c-1.3 2-3.2 4-6.3 4-3 0-4.6-1.8-4.6-4.3 0-3.5 3-4.6 6.9-5.4l4-.7v-.7c0-2.1-.9-3.5-3.7-3.5-2.2 0-4.4.4-6.5.9V9.7c3.3-1.6 7-2.8 10-2.8 5.5 0 7.5 2.8 7.5 7.6v7c0 1.8.4 2.3 1.9 2.3Zm-9.2-2.6V17l-2 .5c-1.4.3-2.4.9-2.4 2.2 0 1.4 1.2 1.8 2.4 1.8a7 7 0 0 0 2-.3Zm22 2.6c.3.2.7.3 1.2.3v1.4H86.4V24c.5 0 .9 0 1.3-.3.3-.1.5-.4.7-.7l.2-1V11.2c0-1.2-.2-1.5-1.6-1.5h-1.1V8.4A27 27 0 0 1 93.3 7c2.1 0 2.6.6 2.6 2.3v1.3c2-2 4.6-3.6 7.5-3.6 3.3 0 5 1.2 5.6 3.8 2.1-2.2 4.6-3.8 7.7-3.8 4.2 0 5.9 2.1 5.9 6.6V22c0 .3 0 .7.2 1 .1.3.4.5.7.7l1.2.3v1.4h-11.6V24c.4 0 .9 0 1.3-.3.3-.1.5-.4.7-.7.1-.3.2-.7.1-1v-6.6c0-2.8-.4-4.7-3.4-4.7-1 0-1.8.1-2.7.5l.2 2.2V22c0 .3 0 .7.2 1l.7.7 1.2.3v1.4H99.8V24c.5 0 .9 0 1.3-.3.3-.1.5-.4.7-.7l.2-1v-6.6c0-2.8-.5-4.7-3.5-4.7-.9 0-1.8.1-2.6.5V22c0 .3 0 .7.2 1l.7.7Zm49.9 0h.7v.8c-1.7 1-3.6 1.4-5.6 1.4-3.6 0-4.3-1.5-4.3-3.6V22c-1.3 2-3.3 4-6.3 4s-4.6-1.8-4.6-4.3c0-3.5 3-4.6 6.9-5.4l4-.7v-.7c0-2.1-.9-3.5-3.8-3.5-2.1 0-4.3.4-6.4.9V9.7c3.3-1.6 7-2.8 10-2.8 5.5 0 7.5 2.8 7.5 7.6v7c0 1.8.4 2.3 1.9 2.3Zm-9.2-2.6V17l-2 .5c-1.4.3-2.4.9-2.4 2.2 0 1.4 1.2 1.8 2.4 1.8a7 7 0 0 0 2-.3Zm11.7 3.5-.1-5.2 1.5-.1c1.4 2.8 3.4 4.7 6 4.7 1.9 0 2.9-1 2.9-2.2 0-1.3-1.3-1.9-2.9-2.2l-1.7-.5c-2.6-.6-5.5-2.4-5.5-5.7 0-4 4-6.6 9.4-6.6 2.2 0 4.4.4 6.3 1.4l.4 4.6h-1.9c-1.6-3-3.4-4-5.3-4-1.6 0-2.5 1-2.5 2 0 1.5 1.1 2.1 2.6 2.5l2.1.5c2.6.6 5.6 1.8 5.6 5.3 0 4.8-5.5 6.8-10.2 6.8a17 17 0 0 1-6.7-1.3Zm22.8-5c-1.8 0-3.9-.8-3.9-3.2 0-2.5 2-3.4 4-3.4 1.7 0 3.8 1 3.8 3.4s-2 3.2-3.9 3.2Zm-168.5.4c-1.8 0-3.6-.8-3.6-3.3 0-2.4 1.8-3.3 3.6-3.3s3.7 1 3.7 3.3c0 2.5-1.9 3.3-3.7 3.3Z" clip-rule="evenodd"/>
</svg>
