<svg xmlns="http://www.w3.org/2000/svg" width="228" height="32" fill="none">
  <g clip-path="url(#a)">
    <path fill="#000" d="M11.8 26h3.6V5.1h-5.3c-5.3 0-8 2.8-8 6.8 0 3.2 1.5 5.1 4.2 7L1.6 26h3.9l5.3-7.9L8.9 17c-2.2-1.5-3.3-2.7-3.3-5.2C5.6 9.5 7.2 8 10.2 8h1.6v18Zm70 .3a6 6 0 0 0 3.7-1v-2.8a5.8 5.8 0 0 1-3.5 1c-2.6 0-3.6-2-3.6-5.1 0-3.3 1.3-5 3.6-5a7 7 0 0 1 3.5 1v-3a8.3 8.3 0 0 0-3.9-.8c-4.5 0-6.9 3.3-6.9 7.9 0 5 2.3 7.8 7 7.8ZM59.5 25v-3a9.1 9.1 0 0 1-4.7 1.5c-2.7 0-3.6-1.2-3.8-3.8h8.6v-1.9c0-5.2-2.3-7.2-5.9-7.2-4.3 0-6.4 3.3-6.4 7.9 0 5.3 2.6 7.8 7.1 7.8 2.3 0 4-.6 5-1.3Zm11.4 1h4l-5.7-8 5-7h-3.6l-5 7v-7H62v15h3.6v-7.3l5.3 7.3Zm-24.5-2.8h-1.6V10.9H34.4v1.3c0 3.7-.2 8.5-1.5 11h-1v6.3H35V26h8v3.5h3.3v-6.3ZM26.8 10.9v6H22v-6h-3.6V26H22v-6.3h4.8V26h3.5V11h-3.5Zm26.9 2.5c1.7 0 2.3 1.5 2.3 3.4v.3h-5c0-2.4 1-3.7 2.7-3.7Zm-12.4 9.8h-5a27 27 0 0 0 1.2-9v-.5h3.8v9.5Zm52.6-18V26h3.6V8h6.5v18h3.6V5.1H94Zm20 5.7h-3.3v19.4h3.6v-6a4.4 4.4 0 0 0 3.7 2c3.5 0 5.9-2.8 5.9-7.9 0-5-2.3-7.8-5.7-7.8-1.7 0-3 .8-4 2.3l-.2-2Zm3.1 12.6c-1.9 0-2.8-1.6-2.8-5 0-3.5 1-5 3-5s3 1.5 3 5c0 3.4-1.1 5-3.2 5Zm20.3-7.8c0-3.7-1.8-5-5.6-5a11 11 0 0 0-5.3 1.3v3a9.3 9.3 0 0 1 4.9-1.5c1.7 0 2.5.6 2.5 2.2v.9h-.6c-5.5 0-8 1.8-8 4.8 0 3.1 2 4.8 4.7 4.8 2.1 0 3-.7 3.7-1.4h.1l.3 1.2h3.5a38 38 0 0 1-.2-3.7v-6.6Zm-3.6 6.7c-.4.7-1.2 1.2-2.5 1.2-1.5 0-2.3-.8-2.3-2.1 0-1.7 1.3-2.4 4.3-2.4h.6v3.3Zm15.4 3.6h4l-5.7-8 5-7h-3.6l-5 7v-7h-3.6v15h3.6v-7.3L149 26Zm16-12.3V11h-12v2.8h4.2V26h3.6V13.7h4.2Zm2-2.8V26h3.3l5.4-9.3V26h3.5V11H176l-5.5 9.2V11h-3.4Zm24 15.1h4l-5.7-8 5-7H191l-5 7v-7h-3.6v15h3.5v-7.3l5.3 7.3Zm7.2 4.7c3.3 0 4.6-2.4 5.6-5.5l4.7-14.3H205l-3.3 11.3-3.3-11.3h-3.8l5.2 15.8a2 2 0 0 1-2 1.1c-.6 0-1.2-.2-1.6-.6v3s.6.4 2 .4Zm24.5-4.7h3.5V11h-5l-3.2 10-3-10H210v15h3V14.7l3.3 11.3h3l3.6-11.3V26Z"/>
  </g>
  <defs>
    <clipPath id="a">
      <path fill="#fff" d="M0 0h228v32H0z"/>
    </clipPath>
  </defs>
</svg>
