<svg xmlns="http://www.w3.org/2000/svg" width="226" height="26" fill="none">
  <path fill="#fff" d="M10.8 21h3.6V.1H9.1C3.8.1 1.1 3 1.1 7c0 3.2 1.5 5.1 4.2 7L.6 21h3.9l5.3-7.9L7.9 12c-2.2-1.5-3.3-2.7-3.3-5.2C4.6 4.5 6.2 3 9.2 3h1.6v18Zm70 .3a6 6 0 0 0 3.7-1v-2.8c-1 .6-2 1-3.5 1-2.6 0-3.6-2-3.6-5.1 0-3.3 1.3-5 3.6-5a7 7 0 0 1 3.5 1v-3c-.8-.5-2.1-.8-3.9-.8-4.5 0-6.9 3.3-6.9 7.9 0 5 2.3 7.8 7 7.8ZM58.5 20v-3c-1.1.8-3 1.5-4.8 1.5-2.6 0-3.6-1.3-3.7-3.8h8.6v-1.9c0-5.2-2.3-7.2-5.9-7.2-4.3 0-6.4 3.3-6.4 7.9 0 5.3 2.6 7.8 7.2 7.8a9 9 0 0 0 5-1.3Zm11.4 1h4l-5.7-8 5-7h-3.6l-5 7V6H61v15h3.6v-7.3l5.3 7.3Zm-24.5-2.8H44V5.9H33.4v1.3c0 3.7-.2 8.5-1.5 11h-1v6.3H34V21h8v3.4h3.3v-6.2ZM25.8 5.9v6H21v-6h-3.6V21H21v-6.3h4.8V21h3.5V6h-3.5Zm26.9 2.5c1.7 0 2.3 1.5 2.3 3.4v.3h-5c0-2.4 1-3.7 2.7-3.7Zm-12.4 9.8h-5a27 27 0 0 0 1.2-9v-.5h3.8v9.5ZM92.9.2V21h3.6V3h6.5v18h3.6V.1H93Zm20 5.7h-3.3v19.5h3.6v-6.2a4.3 4.3 0 0 0 3.7 2.1c3.5 0 5.9-2.8 5.9-7.9 0-5-2.3-7.8-5.7-7.8-1.7 0-3 .8-4 2.3l-.2-2Zm3.1 12.6c-1.9 0-2.8-1.6-2.8-5 0-3.5 1-5 3-5s3 1.5 3 5c0 3.4-1.1 5-3.2 5Zm20.3-7.8c0-3.6-1.8-5-5.6-5a11 11 0 0 0-5.3 1.3v3c1-.7 3-1.5 4.9-1.5 1.7 0 2.5.6 2.5 2.2v.9h-.6c-5.5 0-8 1.8-8 4.8 0 3.1 2 4.8 4.7 4.8 2.1 0 3-.7 3.7-1.4h.2l.2 1.2h3.5a38 38 0 0 1-.2-3.7v-6.6Zm-3.5 6.7c-.5.7-1.3 1.2-2.6 1.2-1.5 0-2.2-.8-2.2-2.1 0-1.7 1.2-2.4 4.2-2.4h.6v3.3ZM148 21h4l-5.6-8 5-7h-3.6l-5 7V6h-3.6v15h3.6v-7.3L148 21Zm16-12.3V6h-12v2.8h4.3V21h3.6V8.7h4.2Zm2.2-2.8V21h3.2l5.4-9.3V21h3.5V6H175l-5.5 9.2V6h-3.4Zm24 15.1h4l-5.8-8 5-7H190l-5 7V6h-3.6v15h3.5v-7.3l5.3 7.3Zm7.1 4.6c3.3 0 4.6-2.3 5.6-5.4l4.7-14.3H204l-3.3 11.3L197.5 6h-3.8l5.2 15.8a2 2 0 0 1-2 1.1c-.6 0-1.2-.2-1.5-.6v3s.5.4 1.9.4Zm24.5-4.6h3.5V6h-5l-3.2 10-3-10H209v15h3V9.7l3.3 11.3h3l3.6-11.3V21Z"/>
</svg>
