<svg xmlns="http://www.w3.org/2000/svg" width="186" height="38" fill="none">
  <g clip-path="url(#a)">
    <path fill="#BDBDBD" fill-rule="evenodd" d="M66.8 6.7a17 17 0 0 0-12-5 17.2 17.2 0 0 0 0 34.5 17.2 17.2 0 0 0 12-29.5Zm-12-5.5c5.3 0 10 2 13.2 5.3a17.5 17.5 0 0 1 0 25c-3.3 3.2-8 5.2-13.1 5.2-5.2 0-9.9-2-13.2-5.3a17.5 17.5 0 0 1 0-25 19 19 0 0 1 13.2-5.2Zm0 16.3c.9 0 1.5.7 1.5 1.5 0 .7-.6 1.4-1.4 1.4-.8 0-1.4-.7-1.4-1.4 0-.8.6-1.5 1.4-1.5Zm103.4 8.8h19.3l-9.7-23.5-9.6 23.5Zm21 9.7h2.3l-3.8-9.2H158l-3.8 9.2h3v.6h-6.9V36h3.2l3.8-9.2H155v-.5h2.5L168.1.5 182.7 36h3.3v.6h-6.8V36Zm-59-21.3h2.3c1 0 2 0 3-.5a8.6 8.6 0 0 0 2.7-3.3l.9-2.1.5-2v-.2c.4-1.2.6-2.3 1.2-3.1l1-1c.5-.4 1-.6 1.6-.8a5 5 0 0 1 1.7-.3h1.4v.5h-1.2l-1 .2c-.5.1-.9.3-1.2.6l-1 1a9 9 0 0 0-1 3l-.1.1a31.2 31.2 0 0 1-1.4 4.2c-.4.7-.8 1.5-1.4 2a6.3 6.3 0 0 1-2 1.7h1.3c1.6 0 3.5 0 5.2 1.3a9 9 0 0 1 2 2.3 28.8 28.8 0 0 1 3.5 10.3v.3c.4 2 .7 3.7 1.4 5a6.7 6.7 0 0 0 2.7 2.7l.8.3h.6v.6l-1.2-.1c-.4-.1-.8-.2-1.3-.5a7.3 7.3 0 0 1-3-2.9c-.6-1.3-1-3-1.3-5v-.4a63.4 63.4 0 0 0-1.8-6.8 18 18 0 0 0-1.7-3.4 8.5 8.5 0 0 0-2-2.2c-1.2-1-2.6-1-3.9-1h-7.4V36h2.7v.6H116V36h2.7V2H116v-.5h6.8V2h-2.7v12.8ZM103.5 36h2.3L92.2 2.8 78.6 36h3v.6h-6.8V36h3.1L92.6.5 107.2 36h3.2v.6h-6.8V36ZM29.6 2v34h2.7v.6h-6.8V36h2.7V2H4v34.4H2.7V1.9H0v-.5h32.3v.5h-2.8Z" clip-rule="evenodd"/>
  </g>
  <defs>
    <clipPath id="a">
      <path fill="#fff" d="M0 0h186v38H0z"/>
    </clipPath>
  </defs>
</svg>
