<svg xmlns="http://www.w3.org/2000/svg" width="160" height="32" fill="none">
  <g fill="#BDBDBD" clip-path="url(#a)">
    <path d="m18.1 9.2.4-.4c0-4.9-3.9-8.3-9-8.3-5 0-8.9 3.4-8.9 8 0 4.8 3 7.5 7 8.7l3.2 1c2 .5 4.3 1.6 4.3 4.5 0 2.6-1.9 4.5-5.3 4.5-2.8 0-5.6-2-5.5-5.7l-.4-.4-3.7 1.2-.2.4c0 4.6 4.2 8.8 9.8 8.8 6.3 0 9.6-4.5 9.6-8.8 0-4.9-3.1-7.5-7-8.5l-3.2-1C6 12.2 4.9 11 4.9 8.4c0-2.2 1.8-3.9 4.7-3.9 2.8 0 4.7 2 4.7 4.3l.4.4H18Zm5.7-4.5.5.5h6.6v25.2l.4.4h3.5l.4-.4V5.2h6.6l.4-.5V1.5l-.4-.4H24.3l-.5.4v3.2Zm23.7 25.7.4.4h3.5l.4-.4V17.6h.6l9.4 12.8.4.4h4.4V30l-9.4-12.4c4.6-.2 8.8-3.2 8.8-8.2 0-5.3-4.2-8.3-9.1-8.3h-9l-.4.4v29Zm4.3-16.7V5.2H57c2.4 0 4.7 1.4 4.7 4.2 0 2.9-2.3 4.3-4.7 4.3h-5.3Zm18.9 16.7.4.4h17.2l.4-.4v-3.2l-.4-.4H75v-9h12.8l.5-.4V14l-.5-.4H75V5.2h13.3l.4-.5V1.5l-.4-.4H71l-.4.4v29Zm23.3 0 .4.4h17l.5-.4v-3.2l-.4-.4H98.2V1.5l-.4-.4h-3.4l-.4.4v29ZM131 1l-.3.5-9.2 11.8V1.5L121 1h-3.5l-.4.4v29l.4.3h3.5l.4-.4V18.2l9.6 12.2.4.4h4.7l.2-.4-11.9-14.8L136 1.5l-.2-.4h-4.6Zm7.4 29.4.2.4h3.9l.4-.4 1.7-6.9h9.2l1.7 7 .4.3h3.9l.2-.4-8.1-29-.5-.3H147l-.4.4-8.2 29Zm10.8-24 3.5 13h-7l3.5-13Z"/>
  </g>
  <defs>
    <clipPath id="a">
      <path fill="#fff" d="M0 0h160v32H0z"/>
    </clipPath>
  </defs>
</svg>
